<svg width="83" height="83" viewBox="0 0 83 83" fill="none" xmlns="http://www.w3.org/2000/svg">
<path d="M42 36C46.3722 36 49.9166 32.4556 49.9166 28.0834C49.9166 23.7111 46.3722 20.1667 42 20.1667C37.6277 20.1667 34.0833 23.7111 34.0833 28.0834C34.0833 32.4556 37.6277 36 42 36Z" stroke="#AE285D" stroke-width="2" stroke-linecap="round" stroke-linejoin="round"/>
<path d="M28.3991 51.8333C28.3991 45.7058 34.495 40.75 42 40.75" stroke="#AE285D" stroke-width="2" stroke-linecap="round" stroke-linejoin="round"/>
<path d="M51.8167 50.8834C54.6149 50.8834 56.8834 48.6149 56.8834 45.8167C56.8834 43.0184 54.6149 40.75 51.8167 40.75C49.0184 40.75 46.75 43.0184 46.75 45.8167C46.75 48.6149 49.0184 50.8834 51.8167 50.8834Z" stroke="#AE285D" stroke-width="2" stroke-linecap="round" stroke-linejoin="round"/>
<path d="M57.8333 51.8333L56.25 50.25" stroke="#AE285D" stroke-width="2" stroke-linecap="round" stroke-linejoin="round"/>
<path d="M62.25 65.2241H59.6216C56.855 65.2241 54.2266 66.2962 52.29 68.2329L46.3762 74.0774C43.6787 76.7404 39.2867 76.7404 36.5892 74.0774L30.6754 68.2329C28.7387 66.2962 26.0758 65.2241 23.3437 65.2241H20.75C15.0092 65.2241 10.375 60.6246 10.375 54.953V17.2224C10.375 11.5508 15.0092 6.95129 20.75 6.95129H62.25C67.9908 6.95129 72.625 11.5508 72.625 17.2224V54.953C72.625 60.5901 67.9908 65.2241 62.25 65.2241Z" stroke="#292D32" stroke-width="2" stroke-miterlimit="10" stroke-linecap="round" stroke-linejoin="round"/>
</svg>
