<svg width="75" height="75" viewBox="0 0 75 75" fill="none" xmlns="http://www.w3.org/2000/svg">
<path d="M29.7292 43.321L35.4363 47.7519C36.1807 48.4963 37.8468 48.8506 38.9457 48.8506H45.9643C48.1621 48.8506 50.5726 47.1847 51.1397 44.9869L55.5707 31.5521C56.4923 28.9644 54.8263 26.7667 52.0613 26.7667H44.6882C43.5893 26.7667 42.6677 25.8451 42.845 24.569L43.7666 18.6845C44.1211 17.0185 43.0222 15.1751 41.3561 14.6434C39.8673 14.0763 38.024 14.8206 37.3151 15.9195L29.7647 27.1566" stroke="#82133F" stroke-width="2" stroke-miterlimit="10"/>
<path d="M20.3356 43.3211V25.2779C20.3356 22.6902 21.4344 21.7686 24.0221 21.7686H25.8654C28.4531 21.7686 29.552 22.6902 29.552 25.2779V43.3211C29.552 45.9088 28.4531 46.8304 25.8654 46.8304H24.0221C21.4344 46.8304 20.3356 45.9088 20.3356 43.3211Z" stroke="#82133F" stroke-width="2" stroke-linecap="round" stroke-linejoin="round"/>
<path d="M59.3283 61.2575H56.6342C53.7984 61.2575 51.1044 62.3563 49.1193 64.3414L43.0577 70.3323C40.2928 73.0618 35.7909 73.0618 33.026 70.3323L26.9644 64.3414C24.9794 62.3563 22.2499 61.2575 19.4495 61.2575H16.7909C10.9066 61.2575 6.15662 56.543 6.15662 50.7296V12.056C6.15662 6.24252 10.9066 1.52808 16.7909 1.52808H59.3283C65.2126 1.52808 69.9626 6.24252 69.9626 12.056V50.7296C69.9626 56.5076 65.2126 61.2575 59.3283 61.2575Z" stroke="#1E2A3B" stroke-width="2" stroke-miterlimit="10" stroke-linecap="round" stroke-linejoin="round"/>
</svg>
