<svg width="81" height="34" viewBox="0 0 81 34" fill="none" xmlns="http://www.w3.org/2000/svg">
<path d="M64.0167 0H16.9842C7.60372 0 0 7.58414 0 17.0004C0 26.4159 7.60372 34.0008 16.9842 34.0008H64.0167C73.3963 34.0008 81.0009 26.4167 81.0009 17.0004C81.0001 7.58414 73.3963 0 64.0167 0Z" fill="#0F9D58"/>
<path d="M63.549 31.5212C71.7835 31.5212 78.4589 25.02 78.4589 17.0005C78.4589 8.98093 71.7835 2.4798 63.549 2.4798C55.3145 2.4798 48.6392 8.98093 48.6392 17.0005C48.6392 25.02 55.3145 31.5212 63.549 31.5212Z" fill="white"/>
<path d="M63.5911 11.5798H61.6057C61.489 11.5798 61.416 11.6602 61.416 11.7893V22.0236C61.416 22.1527 61.489 22.2331 61.6057 22.2331H63.5911C63.7077 22.2331 63.7808 22.1527 63.7808 22.0236V11.7893C63.7808 11.6602 63.7077 11.5798 63.5911 11.5798Z" fill="#64748B"/>
<path d="M68.6612 11.7439C68.6176 11.6308 68.5588 11.5822 68.4422 11.5822H68.4374H65.8433H65.8386C65.7219 11.5822 65.6489 11.6627 65.6489 11.7917V22.0213C65.6489 22.1503 65.7219 22.2308 65.8386 22.2308H65.8433H67.8137H67.824C67.9407 22.2308 68.0137 22.1503 68.0137 22.0213V17.8982C68.0137 17.5581 68.0105 17.2546 68.0041 16.967V14.8043L68.0637 14.8824L69.2143 17.4482H69.2151L69.2159 17.4267L70.007 19.1257C70.2403 19.6578 70.7752 20.9188 71.4306 22.0707C71.4902 22.1758 71.533 22.2324 71.6497 22.2324H74.2477C74.3643 22.2324 74.4374 22.1519 74.4374 22.0229V11.7917C74.4374 11.6627 74.3643 11.5822 74.2477 11.5822H72.2773C72.1607 11.5822 72.0877 11.6627 72.0877 11.7917V12.7906V19.0094L72.0282 18.9314L70.8775 16.3656H70.8767" fill="#64748B"/>
<path d="M60.0784 11.5782H53.0564C52.9397 11.5782 52.8667 11.6586 52.8667 11.7877V22.022C52.8667 22.1511 52.9397 22.2315 53.0564 22.2315H55.0418C55.1584 22.2315 55.2314 22.1511 55.2314 22.022V18.8214H58.9539C59.0706 18.8214 59.1436 18.7409 59.1436 18.6119V16.6643C59.1436 16.5352 59.0706 16.4452 58.9539 16.4452L55.2314 16.4548V13.8858L59.5673 13.8994C59.6697 13.8994 59.7427 13.807 59.7721 13.6947L60.2395 11.8195C60.268 11.6746 60.2093 11.5782 60.0784 11.5782Z" fill="#64748B"/>
<path d="M25.0473 22.0642C25.0473 22.1932 24.9743 22.2737 24.8577 22.2737H22.8723C22.7556 22.2737 22.6826 22.1932 22.6826 22.0642V11.7629C22.6826 11.6339 22.7556 11.5534 22.8723 11.5534H24.8577C24.9743 11.5534 25.0473 11.6339 25.0473 11.7629V22.0642Z" fill="white"/>
<path d="M29.4729 17.7061C27.4732 16.8841 26.7431 16.0779 26.7431 14.3207C26.7431 12.209 28.1882 11.4069 30.495 11.4069C31.3417 11.4069 32.1297 11.5678 32.8304 11.8259L33.7938 12.1803C33.9255 12.2289 33.9541 12.3094 33.9255 12.4384L33.3272 13.8531C33.2835 13.9822 33.2105 14.0308 33.0939 13.9822L32.2329 13.6922C31.6488 13.4987 31.0941 13.3537 30.4958 13.3537C29.6785 13.3537 29.1238 13.7408 29.1238 14.3215C29.1238 14.8855 29.5761 15.1436 30.4085 15.4821L31.6345 15.9816C33.6636 16.8203 34.3937 17.6583 34.3937 19.4156C34.3937 21.6245 33.0359 22.6058 30.5537 22.6058C29.6777 22.6058 28.8897 22.5094 27.6779 22.0737L26.7146 21.7352C26.5828 21.6866 26.5543 21.6061 26.5828 21.4771L27.1669 19.8832C27.2105 19.7541 27.2835 19.7055 27.4002 19.7541L28.4223 20.0927C29.2833 20.3826 29.926 20.4798 30.5537 20.4798C31.3417 20.4798 32.0139 20.2703 32.0139 19.4156C32.0139 18.9321 31.5028 18.5609 30.6997 18.2223L29.4729 17.7061Z" fill="white"/>
<path d="M44.4136 22.0235C44.4136 22.1526 44.3405 22.233 44.2239 22.233H42.2527C42.1361 22.233 42.0631 22.1526 42.0631 22.0235V17.8845H38.2676V22.0235C38.2676 22.1526 38.1946 22.233 38.0779 22.233H36.0925C35.9758 22.233 35.9028 22.1526 35.9028 22.0235V11.794C35.9028 11.6649 35.9758 11.5845 36.0925 11.5845H38.0779C38.1946 11.5845 38.2676 11.6649 38.2676 11.794V15.6111H42.0631V11.794C42.0631 11.6649 42.1361 11.5845 42.2527 11.5845H44.2239C44.3405 11.5845 44.4136 11.6649 44.4136 11.794V22.0235Z" fill="white"/>
<path d="M21.1224 11.5813H19.1076C18.9909 11.5813 18.9179 11.6458 18.8885 11.7589L17.9117 15.7235C17.8347 16.0628 17.7617 16.4316 17.6935 16.8092L17.2078 19.0444L16.7166 16.9263C16.6349 16.5057 16.546 16.0939 16.4516 15.7211L16.1786 14.6075C15.9207 13.513 15.7049 12.855 15.5184 11.7749C15.5041 11.6458 15.4311 11.5813 15.3136 11.5813H15.247H12.641H12.5743C12.4577 11.5813 12.3847 11.6458 12.3696 11.7749C12.1823 12.855 11.9673 13.513 11.7094 14.6075L11.4364 15.7211C11.342 16.0947 11.2531 16.5065 11.1714 16.9263L10.6802 19.0444L10.1945 16.8092C10.1263 16.4316 10.0525 16.062 9.97629 15.7235L8.99944 11.7589C8.97008 11.6458 8.89707 11.5813 8.78042 11.5813H6.76562C6.63389 11.5813 6.56089 11.6777 6.60532 11.8067L8.40111 19.1543C8.66377 20.2663 8.88279 20.9402 9.07244 22.0363C9.08673 22.1653 9.15973 22.2299 9.27718 22.2299H11.949C11.9498 22.2299 11.9506 22.2291 11.9522 22.2291H12.0792C12.1958 22.2291 12.2688 22.1645 12.2982 22.0514L13.275 18.0869C13.352 17.7476 13.425 17.3787 13.4933 17.0012L13.9448 14.9253L14.3963 17.0012C14.4646 17.3787 14.5384 17.7484 14.6145 18.0869L15.5914 22.0514C15.6207 22.1645 15.6938 22.2291 15.8104 22.2291H15.9374L15.9405 22.2299H18.6124C18.729 22.2299 18.8021 22.1653 18.8171 22.0363C19.0068 20.9402 19.2258 20.2671 19.4885 19.1543L21.2842 11.8067C21.3263 11.6785 21.2533 11.5813 21.1224 11.5813Z" fill="white"/>
</svg>
